<svg id="svg" xmlns="http://www.w3.org/2000/svg" xmlns:xlink="http://www.w3.org/1999/xlink" width="400" height="400" viewBox="0, 0, 400,400"><g id="svgg"><path id="path0" d="M18.400 61.919 C 18.400 62.296,199.162 232.423,200.101 232.930 C 200.573 233.185,380.800 64.211,380.800 63.513 C 380.800 63.108,387.822 59.133,286.448 116.909 C 239.555 143.634,201.108 165.068,200.996 164.547 C 200.884 164.026,202.190 158.650,203.899 152.600 L 207.005 141.600 200.249 141.600 C 193.897 141.600,193.522 141.694,193.991 143.171 C 195.437 147.727,200.016 165.050,199.824 165.238 C 199.701 165.359,159.460 142.427,110.400 114.279 C 7.567 55.279,18.400 61.445,18.400 61.919 M92.948 202.050 C 65.196 209.518,59.871 246.725,84.400 261.774 C 103.971 273.781,129.896 261.642,133.466 238.800 C 137.083 215.662,115.409 196.005,92.948 202.050 M291.348 202.050 C 263.960 209.420,258.196 245.879,282.000 261.178 C 301.903 273.969,328.215 262.162,331.866 238.800 C 335.461 215.801,313.675 196.041,291.348 202.050 M112.882 230.616 C 122.645 237.138,118.062 251.188,106.169 251.197 C 95.165 251.206,91.307 236.042,100.800 230.095 C 103.824 228.201,109.642 228.452,112.882 230.616 M300.420 230.413 C 303.422 232.268,305.600 236.299,305.600 240.000 C 305.600 254.167,284.406 255.120,282.686 241.030 C 281.598 232.116,292.559 225.554,300.420 230.413 M182.031 256.350 C 172.368 268.375,164.330 278.609,164.169 279.092 C 163.924 279.828,196.662 338.117,199.502 342.001 C 200.272 343.055,203.538 337.826,218.712 311.249 L 236.994 279.228 225.536 265.014 C 206.158 240.975,200.694 234.398,200.136 234.444 C 199.841 234.468,191.694 244.326,182.031 256.350 " stroke="none" fill="#000000" fill-rule="evenodd"></path></g></svg>